<svg width="960" height="640" viewBox="0 0 960 640" fill="none" xmlns="http://www.w3.org/2000/svg">
  <rect width="960" height="640" fill="#080A10"/>
  <rect x="92" y="122" width="74" height="372" rx="37" fill="#DEE1E7"/>
  <path d="M138 436L310 282C328.828 265.153 357.284 266.77 374.112 285.621L379.981 292.194C396.816 311.051 395.181 339.53 376.327 356.372L204.327 510.06C185.499 526.907 157.043 525.29 140.214 506.439L134.346 499.867C117.51 481.009 119.146 452.53 138 435.688V436Z" fill="#F1F2F4"/>
  <rect x="794" y="122" width="74" height="372" rx="37" fill="#DEE1E7"/>
  <path d="M749 436L577 282C558.172 265.153 529.716 266.77 512.888 285.621L507.019 292.194C490.184 311.051 491.819 339.53 510.673 356.372L682.673 510.06C701.501 526.907 729.957 525.29 746.786 506.439L752.654 499.867C769.49 481.009 767.854 452.53 749 435.688V436Z" fill="#D9DDE4"/>
  <circle cx="479" cy="383" r="96" fill="#F96A29"/>
  <g opacity="0.26">
    <path d="M383 383H575" stroke="#FFFFFF" stroke-width="4"/>
    <path d="M479 287V479" stroke="#FFFFFF" stroke-width="4"/>
    <path d="M411 315L547 451" stroke="#FFFFFF" stroke-width="4"/>
    <path d="M547 315L411 451" stroke="#FFFFFF" stroke-width="4"/>
  </g>
</svg>
