<svg width="640" height="720" viewBox="0 0 640 720" fill="none" xmlns="http://www.w3.org/2000/svg">
  <rect width="640" height="720" rx="36" fill="url(#paint0_linear_3_2)"/>
  <path d="M0 504C89.3333 458 194.133 451.2 314.4 483.6C431.6 515.2 540.133 511.333 640 472V720H0V504Z" fill="#4F8F4E"/>
  <circle cx="340" cy="220" r="96" fill="#D6B28E"/>
  <path d="M266 220C294.667 202 319.333 193 340 193C361.333 193 386 202 414 220" stroke="#AF855F" stroke-width="16" stroke-linecap="round"/>
  <path d="M290 262C311.333 274.667 328 281 340 281C352.667 281 370.667 274.667 394 262" stroke="#1C2638" stroke-width="11" stroke-linecap="round"/>
  <path d="M214 538C214 452.396 283.396 383 369 383H395C480.604 383 550 452.396 550 538V720H214V538Z" fill="#0F1828"/>
  <rect x="222" y="420" width="178" height="52" rx="26" fill="#D5F255"/>
  <text x="250" y="455" fill="#12213A" font-family="Arial, sans-serif" font-size="30" font-weight="700">Rising Pro</text>
  <defs>
    <linearGradient id="paint0_linear_3_2" x1="320" y1="0" x2="320" y2="720" gradientUnits="userSpaceOnUse">
      <stop stop-color="#8ED2F8"/>
      <stop offset="1" stop-color="#195E8B"/>
    </linearGradient>
  </defs>
</svg>
