<svg width="760" height="900" viewBox="0 0 760 900" fill="none" xmlns="http://www.w3.org/2000/svg">
  <rect width="760" height="900" rx="44" fill="#0C1729"/>
  <rect x="34" y="34" width="692" height="832" rx="32" fill="url(#paint0_linear)"/>
  <circle cx="602" cy="144" r="72" fill="#D5F255" fill-opacity="0.18"/>
  <circle cx="602" cy="144" r="48" stroke="#D5F255" stroke-width="2"/>
  <rect x="74" y="102" width="168" height="168" rx="40" fill="#12213A"/>
  <text x="158" y="196" text-anchor="middle" fill="#D5F255" font-family="Arial, sans-serif" font-size="64" font-weight="700" letter-spacing="-5">LA</text>
  <text x="76" y="352" fill="#12213A" font-family="Arial, sans-serif" font-size="36" font-weight="700">LAKAREBER ABE</text>
  <text x="76" y="398" fill="#455065" font-family="Arial, sans-serif" font-size="21" font-weight="600">Professional profile</text>
  <rect x="76" y="446" width="608" height="88" rx="22" fill="#12213A"/>
  <text x="104" y="499" fill="#D5F255" font-family="Arial, sans-serif" font-size="27" font-weight="700">143 EPSON TOUR STARTS</text>
  <text x="430" y="499" fill="#FFFFFF" font-family="Arial, sans-serif" font-size="22" font-weight="600">2018 through 2025</text>
  <rect x="76" y="558" width="292" height="118" rx="24" fill="#F8F7F2"/>
  <text x="104" y="612" fill="#12213A" font-family="Arial, sans-serif" font-size="42" font-weight="700">64</text>
  <text x="104" y="650" fill="#455065" font-family="Arial, sans-serif" font-size="24" font-weight="600">Low round in</text>
  <text x="104" y="680" fill="#455065" font-family="Arial, sans-serif" font-size="24" font-weight="600">2024 Epson season</text>
  <rect x="392" y="558" width="292" height="118" rx="24" fill="#12213A"/>
  <text x="420" y="612" fill="#D5F255" font-family="Arial, sans-serif" font-size="42" font-weight="700">63</text>
  <text x="420" y="650" fill="#FFFFFF" font-family="Arial, sans-serif" font-size="24" font-weight="600">Alabama record</text>
  <text x="420" y="680" fill="#FFFFFF" font-family="Arial, sans-serif" font-size="24" font-weight="600">at Mason Rudolph</text>
  <rect x="76" y="702" width="608" height="130" rx="24" fill="#F8F7F2"/>
  <text x="104" y="756" fill="#12213A" font-family="Arial, sans-serif" font-size="30" font-weight="700">2025 Reliance Matrix Championship T5</text>
  <text x="104" y="796" fill="#455065" font-family="Arial, sans-serif" font-size="22" font-weight="600">2024-25 earnings: $43,939 | LPGA Black History Month feature in 2026</text>
  <defs>
    <linearGradient id="paint0_linear" x1="380" y1="34" x2="380" y2="866" gradientUnits="userSpaceOnUse">
      <stop stop-color="#EAF3FA"/>
      <stop offset="1" stop-color="#C0D3E5"/>
    </linearGradient>
  </defs>
</svg>
